<svg xmlns="http://www.w3.org/2000/svg" viewBox="0 0 800 550">

  <!-- ══════════════════════════════════════════════════════════
       RICHMOND, VIRGINIA — Antique City Map
       Palette: amber blocks, slate-blue water, sage parks
       ══════════════════════════════════════════════════════════ -->

  <!-- ── JAMES RIVER (blue fill) ── -->
  <path d="M 0,302 C 60,303 120,306 175,316 C 220,325 252,342 278,362
           C 304,382 324,404 350,421 C 376,438 408,447 440,441
           C 472,435 498,420 518,402 C 540,383 556,359 572,338
           C 588,319 610,300 654,292 C 698,287 735,284 800,282
           L 800,322 C 735,324 698,327 654,332
           C 610,340 588,359 572,378 C 556,399 540,423 518,440
           C 498,457 472,472 440,478 C 408,484 376,474 350,457
           C 324,440 304,418 278,398 C 252,378 220,361 175,352
           C 120,342 60,339 0,337 Z"
        fill="#6B9BB8"/>

  <!-- Belle Isle (green island in river) -->
  <ellipse cx="434" cy="452" rx="58" ry="20" fill="#7BA86A"/>
  <ellipse cx="434" cy="452" rx="58" ry="20" fill="none" stroke="#4A6840" stroke-width="0.8"/>

  <!-- ── NEIGHBORHOOD FILLS ── -->

  <!-- Monroe Ward / Downtown core -->
  <polygon points="380,160 660,160 660,312 380,312"
           fill="#D4B87A"/>

  <!-- Jackson Ward (north of downtown, NW) -->
  <polygon points="250,160 380,160 380,248 250,248"
           fill="#C8B070"/>

  <!-- The Fan District (wedge going west) -->
  <polygon points="140,175 380,160 380,312 140,312"
           fill="#CDAA6A"/>

  <!-- Church Hill (east of downtown, elevated) -->
  <polygon points="660,160 758,160 758,310 660,310"
           fill="#D0B872"/>

  <!-- Oregon Hill (south of Fan, above river) -->
  <polygon points="305,312 420,312 420,368 305,368"
           fill="#C8AC6A"/>

  <!-- Manchester / South Side (south bank of river) -->
  <polygon points="370,460 610,460 610,530 370,530"
           fill="#D0B878"/>

  <!-- Fulton (far east) -->
  <polygon points="758,200 800,200 800,340 758,340"
           fill="#C4A860"/>

  <!-- ── PARKS (sage green) ── -->
  <!-- Monroe Park (vertex of the Fan) -->
  <rect x="353" y="264" width="30" height="26" fill="#8BAE72"/>
  <!-- Byrd Park (west in Fan) -->
  <circle cx="180" cy="270" r="22" fill="#8BAE72"/>
  <!-- Capitol Square -->
  <rect x="500" y="228" width="28" height="24" fill="#8BAE72"/>
  <!-- Libby Hill Park (Church Hill) -->
  <circle cx="700" cy="230" r="15" fill="#8BAE72"/>

  <!-- ── STREET GRID — Downtown/Jackson Ward/Church Hill ── -->
  <!-- E–W streets (horizontal), y=160 to y=312, spacing ~19px -->
  <line x1="250" y1="179" x2="758" y2="179" stroke="#8B6A3A" stroke-width="0.7"/>
  <line x1="250" y1="198" x2="758" y2="198" stroke="#8B6A3A" stroke-width="0.7"/>
  <line x1="250" y1="217" x2="758" y2="217" stroke="#8B6A3A" stroke-width="0.7"/>
  <line x1="250" y1="236" x2="758" y2="236" stroke="#8B6A3A" stroke-width="0.7"/>
  <line x1="250" y1="255" x2="758" y2="255" stroke="#8B6A3A" stroke-width="0.9"/><!-- Broad St -->
  <line x1="250" y1="274" x2="758" y2="274" stroke="#8B6A3A" stroke-width="0.7"/>
  <line x1="250" y1="293" x2="758" y2="293" stroke="#8B6A3A" stroke-width="0.7"/>

  <!-- N–S streets (vertical), x=250 to x=758, spacing ~22px -->
  <line x1="272" y1="160" x2="272" y2="368" stroke="#8B6A3A" stroke-width="0.7"/>
  <line x1="294" y1="160" x2="294" y2="368" stroke="#8B6A3A" stroke-width="0.7"/>
  <line x1="316" y1="160" x2="316" y2="368" stroke="#8B6A3A" stroke-width="0.7"/>
  <line x1="338" y1="160" x2="338" y2="368" stroke="#8B6A3A" stroke-width="0.7"/>
  <line x1="360" y1="160" x2="360" y2="368" stroke="#8B6A3A" stroke-width="0.7"/>
  <line x1="382" y1="160" x2="382" y2="368" stroke="#8B6A3A" stroke-width="0.7"/>
  <line x1="404" y1="160" x2="404" y2="312" stroke="#8B6A3A" stroke-width="0.7"/>
  <line x1="426" y1="160" x2="426" y2="312" stroke="#8B6A3A" stroke-width="0.7"/>
  <line x1="448" y1="160" x2="448" y2="312" stroke="#8B6A3A" stroke-width="0.7"/>
  <line x1="470" y1="160" x2="470" y2="312" stroke="#8B6A3A" stroke-width="0.9"/><!-- 7th St -->
  <line x1="492" y1="160" x2="492" y2="312" stroke="#8B6A3A" stroke-width="0.7"/>
  <line x1="514" y1="160" x2="514" y2="312" stroke="#8B6A3A" stroke-width="0.7"/>
  <line x1="536" y1="160" x2="536" y2="312" stroke="#8B6A3A" stroke-width="0.7"/>
  <line x1="558" y1="160" x2="558" y2="312" stroke="#8B6A3A" stroke-width="0.7"/>
  <line x1="580" y1="160" x2="580" y2="312" stroke="#8B6A3A" stroke-width="0.7"/>
  <line x1="602" y1="160" x2="602" y2="312" stroke="#8B6A3A" stroke-width="0.7"/>
  <line x1="624" y1="160" x2="624" y2="312" stroke="#8B6A3A" stroke-width="0.7"/>
  <line x1="646" y1="160" x2="646" y2="312" stroke="#8B6A3A" stroke-width="0.7"/>
  <line x1="668" y1="160" x2="668" y2="312" stroke="#8B6A3A" stroke-width="0.7"/>
  <line x1="690" y1="160" x2="690" y2="312" stroke="#8B6A3A" stroke-width="0.7"/>
  <line x1="712" y1="160" x2="712" y2="312" stroke="#8B6A3A" stroke-width="0.7"/>
  <line x1="734" y1="160" x2="734" y2="312" stroke="#8B6A3A" stroke-width="0.7"/>
  <line x1="756" y1="160" x2="756" y2="312" stroke="#8B6A3A" stroke-width="0.7"/>

  <!-- ── THE FAN — radiating street grid ── -->
  <!-- Cross streets (E-W across the Fan) -->
  <line x1="140" y1="179" x2="380" y2="179" stroke="#8B6A3A" stroke-width="0.7"/>
  <line x1="140" y1="198" x2="380" y2="198" stroke="#8B6A3A" stroke-width="0.7"/>
  <line x1="140" y1="217" x2="380" y2="217" stroke="#8B6A3A" stroke-width="0.7"/>
  <line x1="140" y1="236" x2="380" y2="236" stroke="#8B6A3A" stroke-width="0.7"/>
  <line x1="140" y1="255" x2="380" y2="255" stroke="#8B6A3A" stroke-width="0.9"/><!-- Broad St west extension -->
  <line x1="140" y1="274" x2="380" y2="274" stroke="#8B6A3A" stroke-width="0.7"/>
  <line x1="140" y1="293" x2="380" y2="293" stroke="#8B6A3A" stroke-width="0.7"/>
  <!-- Monument Ave (grand boulevard through The Fan) -->
  <line x1="140" y1="204" x2="380" y2="190" stroke="#5C3C18" stroke-width="2.0"/>
  <!-- Radiating N-S streets (slightly converging toward Monroe Park) -->
  <line x1="162" y1="175" x2="170" y2="312" stroke="#8B6A3A" stroke-width="0.7"/>
  <line x1="186" y1="175" x2="192" y2="312" stroke="#8B6A3A" stroke-width="0.7"/>
  <line x1="210" y1="175" x2="214" y2="312" stroke="#8B6A3A" stroke-width="0.7"/>
  <line x1="234" y1="175" x2="236" y2="312" stroke="#8B6A3A" stroke-width="0.7"/>
  <line x1="258" y1="175" x2="258" y2="312" stroke="#8B6A3A" stroke-width="0.7"/>
  <!-- Boulevard (main N-S boundary of the Fan) -->
  <line x1="144" y1="160" x2="144" y2="368" stroke="#5C3C18" stroke-width="1.8"/>

  <!-- ── MAJOR STREETS (slightly bolder) ── -->
  <!-- Broad St full run (E-W spine) -->
  <line x1="0"   y1="255" x2="800" y2="255" stroke="#5C3C18" stroke-width="1.8"/>
  <!-- Main St -->
  <line x1="250" y1="283" x2="800" y2="283" stroke="#5C3C18" stroke-width="1.4"/>
  <!-- Cary St (south side) -->
  <line x1="140" y1="296" x2="660" y2="296" stroke="#5C3C18" stroke-width="1.2"/>

  <!-- ── SOUTH SIDE GRID (Manchester, below river) ── -->
  <line x1="370" y1="470" x2="610" y2="470" stroke="#8B6A3A" stroke-width="0.6"/>
  <line x1="370" y1="484" x2="610" y2="484" stroke="#8B6A3A" stroke-width="0.6"/>
  <line x1="370" y1="498" x2="610" y2="498" stroke="#8B6A3A" stroke-width="0.6"/>
  <line x1="370" y1="512" x2="610" y2="512" stroke="#8B6A3A" stroke-width="0.6"/>
  <line x1="395" y1="460" x2="395" y2="530" stroke="#8B6A3A" stroke-width="0.6"/>
  <line x1="430" y1="460" x2="430" y2="530" stroke="#8B6A3A" stroke-width="0.6"/>
  <line x1="465" y1="460" x2="465" y2="530" stroke="#8B6A3A" stroke-width="0.6"/>
  <line x1="500" y1="460" x2="500" y2="530" stroke="#8B6A3A" stroke-width="0.6"/>
  <line x1="535" y1="460" x2="535" y2="530" stroke="#8B6A3A" stroke-width="0.6"/>
  <line x1="570" y1="460" x2="570" y2="530" stroke="#8B6A3A" stroke-width="0.6"/>
  <line x1="605" y1="460" x2="605" y2="530" stroke="#8B6A3A" stroke-width="0.6"/>

  <!-- ── NEIGHBORHOOD OUTLINES (borders between zones) ── -->
  <line x1="380" y1="160" x2="380" y2="368" stroke="#5C3C18" stroke-width="1.5"/><!-- Downtown/Fan boundary -->
  <line x1="660" y1="160" x2="660" y2="312" stroke="#5C3C18" stroke-width="1.5"/><!-- Downtown/Church Hill -->
  <line x1="250" y1="160" x2="250" y2="368" stroke="#5C3C18" stroke-width="1.5"/><!-- Jackson/Fan west edge -->

  <!-- ── DECORATIVE BORDER ── -->
  <rect x="8"  y="8"  width="784" height="534" stroke="#3A2208" stroke-width="2.5" fill="none"/>
  <rect x="16" y="16" width="768" height="518" stroke="#3A2208" stroke-width="0.8" fill="none"/>
  <!-- Corner fills -->
  <rect x="8"  y="8"  width="24" height="24" fill="#3A2208" fill-opacity="0.15"/>
  <rect x="768" y="8" width="24" height="24" fill="#3A2208" fill-opacity="0.15"/>
  <rect x="8"  y="518" width="24" height="24" fill="#3A2208" fill-opacity="0.15"/>
  <rect x="768" y="518" width="24" height="24" fill="#3A2208" fill-opacity="0.15"/>

  <!-- ── LABELS ── -->
  <!-- River label -->
  <text x="400" y="499" text-anchor="middle" font-family="Georgia,serif" font-size="13" font-style="italic" fill="#2A4A5A" letter-spacing="4">JAMES RIVER</text>
  <!-- Belle Isle -->
  <text x="434" y="456" text-anchor="middle" font-family="Georgia,serif" font-size="8" fill="#2A3018">Belle Isle</text>
  <!-- Major street labels -->
  <text x="560" y="251" text-anchor="middle" font-family="Georgia,serif" font-size="9" font-weight="bold" fill="#3A2208">BROAD STREET</text>
  <text x="258" y="200" text-anchor="middle" font-family="Georgia,serif" font-size="8" font-style="italic" fill="#3A2208" transform="rotate(-3,258,200)">Monument Ave.</text>
  <!-- Neighborhood labels -->
  <text x="520" y="240" text-anchor="middle" font-family="Georgia,serif" font-size="11" font-weight="bold" fill="#3A2208">DOWNTOWN</text>
  <text x="260" y="248" text-anchor="middle" font-family="Georgia,serif" font-size="10" font-weight="bold" fill="#3A2208">THE FAN</text>
  <text x="700" y="242" text-anchor="middle" font-family="Georgia,serif" font-size="10" font-weight="bold" fill="#3A2208">CHURCH</text>
  <text x="700" y="255" text-anchor="middle" font-family="Georgia,serif" font-size="10" font-weight="bold" fill="#3A2208">HILL</text>
  <!-- Capitol label -->
  <text x="514" y="226" text-anchor="middle" font-family="Georgia,serif" font-size="7" fill="#3A2208">Capitol</text>

  <!-- ── TITLE ── -->
  <text x="400" y="60" text-anchor="middle" font-family="Georgia,serif" font-size="26" font-weight="bold" fill="#3A2208" letter-spacing="5">RICHMOND</text>
  <text x="400" y="80" text-anchor="middle" font-family="Georgia,serif" font-size="11" fill="#3A2208" letter-spacing="3">VIRGINIA</text>
  <line x1="305" y1="85" x2="495" y2="85" stroke="#3A2208" stroke-width="0.7"/>
  <text x="400" y="98" text-anchor="middle" font-family="Georgia,serif" font-size="9" font-style="italic" fill="#3A2208">At the Falls of the James River</text>

  <!-- ── COMPASS ROSE ── -->
  <g transform="translate(686,422)">
    <circle cx="0" cy="0" r="38" stroke="#3A2208" stroke-width="1" fill="#D4B87A" fill-opacity="0.3"/>
    <circle cx="0" cy="0" r="30" stroke="#3A2208" stroke-width="0.5" fill="none"/>
    <polygon points="0,-35 -6,-11 0,-19 6,-11" fill="#3A2208"/>
    <polygon points="0,35  -6,11  0,19  6,11"  fill="#3A2208" fill-opacity="0.5"/>
    <polygon points="-35,0 -11,-5 -19,0 -11,5" fill="#3A2208" fill-opacity="0.5"/>
    <polygon points="35,0  11,-5  19,0  11,5"  fill="#3A2208" fill-opacity="0.5"/>
    <circle cx="0" cy="0" r="3" fill="#3A2208"/>
    <text x="0"  y="-43" text-anchor="middle" font-family="Georgia,serif" font-size="12" fill="#3A2208">N</text>
    <text x="0"  y="53"  text-anchor="middle" font-family="Georgia,serif" font-size="12" fill="#3A2208">S</text>
    <text x="-48" y="4"  text-anchor="middle" font-family="Georgia,serif" font-size="12" fill="#3A2208">W</text>
    <text x="48"  y="4"  text-anchor="middle" font-family="Georgia,serif" font-size="12" fill="#3A2208">E</text>
  </g>

  <!-- ── CARTOUCHE ── -->
  <rect x="26" y="390" width="185" height="118" rx="3" stroke="#3A2208" stroke-width="1.5" fill="#D4B87A" fill-opacity="0.25"/>
  <rect x="32" y="396" width="173" height="106" rx="2" stroke="#3A2208" stroke-width="0.5" fill="none"/>
  <text x="118" y="415" text-anchor="middle" font-family="Georgia,serif" font-size="9" font-weight="bold" fill="#3A2208" letter-spacing="1">A PLAN OF THE CITY OF</text>
  <text x="118" y="432" text-anchor="middle" font-family="Georgia,serif" font-size="14" font-weight="bold" fill="#3A2208">RICHMOND</text>
  <text x="118" y="448" text-anchor="middle" font-family="Georgia,serif" font-size="9" fill="#3A2208">Capital of Virginia</text>
  <line x1="42" y1="453" x2="194" y2="453" stroke="#3A2208" stroke-width="0.6"/>
  <text x="118" y="466" text-anchor="middle" font-family="Georgia,serif" font-size="8" font-style="italic" fill="#3A2208">Showing the Principal Streets</text>
  <text x="118" y="479" text-anchor="middle" font-family="Georgia,serif" font-size="8" font-style="italic" fill="#3A2208">Neighbourhoods &amp; Public Grounds</text>
  <text x="118" y="494" text-anchor="middle" font-family="Georgia,serif" font-size="8" fill="#3A2208">37°32′ N — 77°28′ W</text>
  <text x="118" y="502" text-anchor="middle" font-family="Georgia,serif" font-size="7" fill="#3A2208">© ATLAS ATELIER  2026</text>
</svg>
