<svg xmlns="http://www.w3.org/2000/svg" viewBox="0 0 900 580" fill="none">

  <!-- Antique map — Commonwealth of Virginia -->

  <!-- ── Decorative border ── -->
  <rect x="12" y="12" width="876" height="556" stroke="#4A2E0A" stroke-width="2.5"/>
  <rect x="20" y="20" width="860" height="540" stroke="#4A2E0A" stroke-width="0.8"/>
  <rect x="15" y="15" width="870" height="550" stroke="#4A2E0A" stroke-width="0.5"/>
  <!-- Corner decorations -->
  <rect x="12"  y="12"  width="26" height="26" fill="#4A2E0A" fill-opacity="0.12"/>
  <rect x="862" y="12"  width="26" height="26" fill="#4A2E0A" fill-opacity="0.12"/>
  <rect x="12"  y="542" width="26" height="26" fill="#4A2E0A" fill-opacity="0.12"/>
  <rect x="862" y="542" width="26" height="26" fill="#4A2E0A" fill-opacity="0.12"/>

  <!-- ── Graticule ── -->
  <line x1="25" y1="145" x2="875" y2="145" stroke="#4A2E0A" stroke-width="0.35" stroke-dasharray="5,5"/>
  <line x1="25" y1="290" x2="875" y2="290" stroke="#4A2E0A" stroke-width="0.35" stroke-dasharray="5,5"/>
  <line x1="25" y1="435" x2="875" y2="435" stroke="#4A2E0A" stroke-width="0.35" stroke-dasharray="5,5"/>
  <line x1="220" y1="25" x2="220" y2="555" stroke="#4A2E0A" stroke-width="0.35" stroke-dasharray="5,5"/>
  <line x1="450" y1="25" x2="450" y2="555" stroke="#4A2E0A" stroke-width="0.35" stroke-dasharray="5,5"/>
  <line x1="680" y1="25" x2="680" y2="555" stroke="#4A2E0A" stroke-width="0.35" stroke-dasharray="5,5"/>

  <!-- ── Virginia State Outline ── -->
  <!-- Virginia is roughly rectangular, widening east, with Chesapeake Bay indentation -->
  <!-- Working clockwise from NW corner -->
  <path d="
    M 72,145
    L 72,148
    C 80,148 88,150 95,152
    L 108,150
    C 116,148 125,148 135,150
    L 178,142
    C 200,138 225,132 255,128
    C 285,124 315,120 345,116
    C 375,112 410,108 445,104
    C 480,100 515,98  548,96
    C 580,95  612,96  645,98
    C 678,100 710,104 738,110
    C 760,115 780,120 798,128
    C 812,134 820,140 825,148
    L 828,160
    C 829,168 828,175 826,180
    L 820,192
    C 814,205 806,215 796,222
    L 780,230
    C 762,238 742,244 720,248
    L 695,252
    C 675,255 655,258 638,262
    C 622,265 608,270 596,276
    C 582,282 570,290 558,298
    L 545,308
    C 534,316 524,323 514,328
    L 498,334
    C 482,340 466,344 450,346
    C 434,348 418,348 402,346
    L 388,343
    C 374,340 360,335 348,328
    L 336,320
    C 324,312 314,302 305,292
    L 298,282
    C 292,273 286,265 280,260
    C 274,255 268,252 262,251
    L 248,252
    C 234,253 220,256 206,260
    L 192,265
    C 180,269 168,274 158,280
    L 148,287
    C 138,293 128,300 118,308
    L 108,316
    C 98,324 88,332 80,340
    L 75,348
    C 72,353 70,358 70,364
    L 70,380
    C 70,390 72,398 75,406
    L 80,418
    C 84,428 88,437 90,445
    L 92,458
    C 92,464 91,470 90,476
    L 87,488
    C 85,496 82,503 78,510
    L 74,520
    C 72,524 71,528 72,531
    L 74,536
    C 77,540 80,543 83,544
    L 100,544
    C 112,544 122,542 132,538
    L 148,530
    C 160,524 172,516 182,507
    L 194,496
    C 204,487 213,477 220,467
    L 228,456
    C 234,447 239,438 242,430
    L 244,420
    C 244,413 243,407 240,402
    L 235,393
    C 230,384 224,376 218,370
    L 212,363
    C 206,358 200,354 194,352
    L 182,350
    C 172,349 162,350 152,353
    L 140,357
    C 130,361 120,366 112,372
    L 104,378
    C 100,381 97,384 95,387
    L 93,394
    C 92,400 93,405 95,410
    L 100,420
    C 104,428 110,435 116,440
    L 124,446
    C 128,448 132,449 136,449
    L 145,447
    C 152,444 158,440 164,434
    L 170,427
    C 174,421 177,415 179,409
    L 180,401
    C 180,394 178,388 175,383
    L 170,375
    C 166,369 162,364 158,360
    L 154,356
    C 150,352 146,350 142,350
    L 135,351
    C 128,353 122,358 117,364
    L 112,372
    Z"
    stroke="#4A2E0A" stroke-width="2.2" stroke-linejoin="round"/>

  <!-- Chesapeake Bay (simplified inlet on east side) -->
  <path d="M 825,148 C 838,165 845,185 845,210 C 845,235 838,258 826,278
           C 814,298 798,314 780,326 C 762,338 742,346 720,350
           L 700,352 C 685,352 670,350 656,346 L 645,342"
        stroke="#2A4A5A" stroke-width="1.8"/>
  <path d="M 845,210 C 848,225 848,240 845,255" stroke="#2A4A5A" stroke-width="1" stroke-dasharray="3,3"/>

  <!-- Eastern Shore (narrow peninsula east of the bay) -->
  <path d="M 850,148 C 860,155 865,165 865,178 C 865,200 858,220 848,238
           C 840,254 828,268 815,278" stroke="#4A2E0A" stroke-width="1.5"/>

  <!-- Bay fill suggestion -->
  <path d="M 828,160 C 838,175 843,195 840,218 C 837,240 828,260 815,275
           L 800,285 C 782,296 762,303 740,305 L 720,305 L 700,302 L 680,296"
        stroke="#2A4A5A" stroke-width="0.6" fill="none"/>

  <!-- ── Blue Ridge Mountains ── (diagonal ridge line SW to NE) -->
  <path d="M 118,460 C 145,440 175,418 210,395 C 242,374 278,354 318,334
           C 358,315 398,298 440,284 C 476,272 514,264 550,260"
        stroke="#4A2E0A" stroke-width="2.0" stroke-linecap="round"/>
  <!-- Mountain hatching (small peaks) -->
  <path d="M 145,446 L 162,427 L 178,445" stroke="#4A2E0A" stroke-width="0.8"/>
  <path d="M 175,428 L 192,408 L 208,426" stroke="#4A2E0A" stroke-width="0.8"/>
  <path d="M 210,410 L 228,390 L 244,408" stroke="#4A2E0A" stroke-width="0.8"/>
  <path d="M 245,394 L 264,374 L 280,392" stroke="#4A2E0A" stroke-width="0.8"/>
  <path d="M 278,378 L 296,359 L 314,376" stroke="#4A2E0A" stroke-width="0.8"/>
  <path d="M 312,360 L 330,342 L 348,358" stroke="#4A2E0A" stroke-width="0.8"/>
  <path d="M 346,344 L 364,327 L 382,342" stroke="#4A2E0A" stroke-width="0.8"/>
  <path d="M 380,328 L 398,313 L 415,327" stroke="#4A2E0A" stroke-width="0.8"/>
  <text x="310" y="310" text-anchor="middle" font-family="Georgia,serif" font-size="10" font-style="italic" fill="#4A2E0A" transform="rotate(-14,310,310)">Blue Ridge Mountains</text>

  <!-- ── James River ── -->
  <path d="M 72,350 C 110,348 148,346 185,344 C 220,342 255,342 288,345
           C 318,348 345,356 372,368 C 395,378 415,388 435,395
           C 455,402 475,406 495,406 C 515,406 535,402 555,394
           C 572,388 588,380 602,370 C 616,360 628,350 640,344
           C 660,336 685,334 710,336 C 735,338 758,344 778,352 L 826,374"
        stroke="#2A4A5A" stroke-width="2.2" stroke-linecap="round"/>
  <text x="450" y="420" text-anchor="middle" font-family="Georgia,serif" font-size="9" font-style="italic" fill="#2A4A5A" letter-spacing="2">James River</text>

  <!-- Potomac River (northern boundary area) -->
  <path d="M 480,118 C 510,122 540,128 568,136 C 595,144 620,154 645,164
           C 668,173 690,183 712,192 C 730,200 748,207 766,213 L 798,228"
        stroke="#2A4A5A" stroke-width="1.8" stroke-linecap="round"/>
  <text x="610" y="140" text-anchor="middle" font-family="Georgia,serif" font-size="9" font-style="italic" fill="#2A4A5A" transform="rotate(12,610,140)">Potomac River</text>

  <!-- Appalachian / Allegheny ridges (further west) -->
  <path d="M 72,340 C 82,325 94,310 106,296 C 118,282 130,270 142,260
           C 154,250 166,242 178,238"
        stroke="#4A2E0A" stroke-width="1.2" stroke-dasharray="4,3"/>
  <text x="98" y="308" text-anchor="middle" font-family="Georgia,serif" font-size="9" font-style="italic" fill="#4A2E0A" transform="rotate(-40,98,308)">Allegheny</text>

  <!-- ── City markers ── -->
  <!-- Richmond -->
  <circle cx="498" cy="388" r="6" fill="#4A2E0A" fill-opacity="0.4" stroke="#4A2E0A" stroke-width="1.2"/>
  <text x="498" y="374" text-anchor="middle" font-family="Georgia,serif" font-size="11" font-weight="bold" fill="#4A2E0A">Richmond</text>
  <!-- Norfolk/Hampton Roads -->
  <circle cx="770" cy="336" r="5" fill="#4A2E0A" fill-opacity="0.4" stroke="#4A2E0A" stroke-width="1"/>
  <text x="790" y="330" font-family="Georgia,serif" font-size="9" fill="#4A2E0A">Norfolk</text>
  <!-- Alexandria/Arlington -->
  <circle cx="736" cy="184" r="4" fill="#4A2E0A" fill-opacity="0.4" stroke="#4A2E0A" stroke-width="1"/>
  <text x="756" y="180" font-family="Georgia,serif" font-size="9" fill="#4A2E0A">Alexandria</text>
  <!-- Roanoke -->
  <circle cx="320" cy="390" r="4" fill="#4A2E0A" fill-opacity="0.3" stroke="#4A2E0A" stroke-width="1"/>
  <text x="330" y="386" font-family="Georgia,serif" font-size="9" fill="#4A2E0A">Roanoke</text>
  <!-- Charlottesville -->
  <circle cx="558" cy="348" r="4" fill="#4A2E0A" fill-opacity="0.3" stroke="#4A2E0A" stroke-width="1"/>
  <text x="568" y="344" font-family="Georgia,serif" font-size="9" fill="#4A2E0A">Charlottesville</text>

  <!-- ── Title ── -->
  <text x="450" y="68" text-anchor="middle" font-family="Georgia,serif" font-size="30" font-weight="bold" fill="#4A2E0A" letter-spacing="6">VIRGINIA</text>
  <text x="450" y="88" text-anchor="middle" font-family="Georgia,serif" font-size="12" fill="#4A2E0A" letter-spacing="3">SIC SEMPER TYRANNIS</text>
  <line x1="330" y1="93" x2="570" y2="93" stroke="#4A2E0A" stroke-width="0.8"/>

  <!-- ── Compass rose ── -->
  <g transform="translate(130,150)">
    <circle cx="0" cy="0" r="36" stroke="#4A2E0A" stroke-width="1"/>
    <circle cx="0" cy="0" r="28" stroke="#4A2E0A" stroke-width="0.5"/>
    <polygon points="0,-33 -6,-10 0,-18 6,-10" fill="#4A2E0A"/>
    <polygon points="0,33  -6,10  0,18  6,10"  fill="#4A2E0A" fill-opacity="0.5"/>
    <polygon points="-33,0 -10,-5 -18,0 -10,5" fill="#4A2E0A" fill-opacity="0.5"/>
    <polygon points="33,0  10,-5  18,0  10,5"  fill="#4A2E0A" fill-opacity="0.5"/>
    <circle cx="0" cy="0" r="2.5" fill="#4A2E0A"/>
    <text x="0"   y="-42" text-anchor="middle" font-family="Georgia,serif" font-size="12" fill="#4A2E0A">N</text>
    <text x="0"   y="51"  text-anchor="middle" font-family="Georgia,serif" font-size="12" fill="#4A2E0A">S</text>
    <text x="-45" y="4"   text-anchor="middle" font-family="Georgia,serif" font-size="12" fill="#4A2E0A">W</text>
    <text x="45"  y="4"   text-anchor="middle" font-family="Georgia,serif" font-size="12" fill="#4A2E0A">E</text>
  </g>

  <!-- ── Cartouche ── -->
  <rect x="32" y="430" width="188" height="108" rx="4" stroke="#4A2E0A" stroke-width="1.5" fill="#4A2E0A" fill-opacity="0.05"/>
  <rect x="37" y="435" width="178" height="98"  rx="2" stroke="#4A2E0A" stroke-width="0.5"/>
  <text x="126" y="454" text-anchor="middle" font-family="Georgia,serif" font-size="10" font-weight="bold" fill="#4A2E0A">A MAP OF THE</text>
  <text x="126" y="470" text-anchor="middle" font-family="Georgia,serif" font-size="13" font-weight="bold" fill="#4A2E0A">COMMONWEALTH</text>
  <text x="126" y="486" text-anchor="middle" font-family="Georgia,serif" font-size="13" font-weight="bold" fill="#4A2E0A">OF VIRGINIA</text>
  <line x1="48" y1="492" x2="204" y2="492" stroke="#4A2E0A" stroke-width="0.6"/>
  <text x="126" y="506" text-anchor="middle" font-family="Georgia,serif" font-size="9" font-style="italic" fill="#4A2E0A">Showing Counties &amp; Principal</text>
  <text x="126" y="519" text-anchor="middle" font-family="Georgia,serif" font-size="9" font-style="italic" fill="#4A2E0A">Rivers of the Old Dominion</text>
  <text x="126" y="532" text-anchor="middle" font-family="Georgia,serif" font-size="8" fill="#4A2E0A">36°31′–39°28′ N</text>
</svg>
